<svg viewBox="0 0 1184 1184" width="1184" height="1184" x="0" y="0" xmlns="http://www.w3.org/2000/svg"><defs><pattern id="pattern" x="0" y="0" width="8" height="8" patternUnits="userSpaceOnUse"><polygon points="0,4 0,8 8,0 4,0" fill="#ffffff"></polygon><polygon points="4,8 8,8 8,4" fill="#ffffff"></polygon></pattern><mask id="grating" x="0" y="0" width="1" height="1"><rect x="0" y="0" width="100%" height="100%" fill="url(#pattern)"></rect></mask></defs><g id="horizStripes"><rect fill="#006818" height="64" width="100%" x="0" y="0"></rect><rect fill="#101010" height="24" width="100%" x="0" y="64"></rect><rect fill="#FCFCFC" height="24" width="100%" x="0" y="88"></rect><rect fill="#101010" height="48" width="100%" x="0" y="112"></rect><rect fill="#E8C000" height="32" width="100%" x="0" y="160"></rect><rect fill="#2C2C80" height="96" width="100%" x="0" y="192"></rect><rect fill="#006818" height="48" width="100%" x="0" y="288"></rect><rect fill="#101010" height="64" width="100%" x="0" y="336"></rect><rect fill="#006818" height="96" width="100%" x="0" y="400"></rect><rect fill="#C80000" height="24" width="100%" x="0" y="496"></rect><rect fill="#006818" height="24" width="100%" x="0" y="520"></rect><rect fill="#FCFCFC" height="24" width="100%" x="0" y="544"></rect><rect fill="#006818" height="24" width="100%" x="0" y="568"></rect><rect fill="#101010" height="64" width="100%" x="0" y="592"></rect><rect fill="#006818" height="24" width="100%" x="0" y="656"></rect><rect fill="#FCFCFC" height="24" width="100%" x="0" y="680"></rect><rect fill="#006818" height="24" width="100%" x="0" y="704"></rect><rect fill="#C80000" height="24" width="100%" x="0" y="728"></rect><rect fill="#006818" height="96" width="100%" x="0" y="752"></rect><rect fill="#101010" height="64" width="100%" x="0" y="848"></rect><rect fill="#006818" height="48" width="100%" x="0" y="912"></rect><rect fill="#2C2C80" height="96" width="100%" x="0" y="960"></rect><rect fill="#E8C000" height="32" width="100%" x="0" y="1056"></rect><rect fill="#101010" height="48" width="100%" x="0" y="1088"></rect><rect fill="#FCFCFC" height="24" width="100%" x="0" y="1136"></rect><rect fill="#101010" height="24" width="100%" x="0" y="1160"></rect></g><g id="vertStripes" mask="url(#grating)"><rect fill="#006818" height="100%" width="64" x="0" y="0"></rect><rect fill="#101010" height="100%" width="24" x="64" y="0"></rect><rect fill="#FCFCFC" height="100%" width="24" x="88" y="0"></rect><rect fill="#101010" height="100%" width="48" x="112" y="0"></rect><rect fill="#E8C000" height="100%" width="32" x="160" y="0"></rect><rect fill="#2C2C80" height="100%" width="96" x="192" y="0"></rect><rect fill="#006818" height="100%" width="48" x="288" y="0"></rect><rect fill="#101010" height="100%" width="64" x="336" y="0"></rect><rect fill="#006818" height="100%" width="96" x="400" y="0"></rect><rect fill="#C80000" height="100%" width="24" x="496" y="0"></rect><rect fill="#006818" height="100%" width="24" x="520" y="0"></rect><rect fill="#FCFCFC" height="100%" width="24" x="544" y="0"></rect><rect fill="#006818" height="100%" width="24" x="568" y="0"></rect><rect fill="#101010" height="100%" width="64" x="592" y="0"></rect><rect fill="#006818" height="100%" width="24" x="656" y="0"></rect><rect fill="#FCFCFC" height="100%" width="24" x="680" y="0"></rect><rect fill="#006818" height="100%" width="24" x="704" y="0"></rect><rect fill="#C80000" height="100%" width="24" x="728" y="0"></rect><rect fill="#006818" height="100%" width="96" x="752" y="0"></rect><rect fill="#101010" height="100%" width="64" x="848" y="0"></rect><rect fill="#006818" height="100%" width="48" x="912" y="0"></rect><rect fill="#2C2C80" height="100%" width="96" x="960" y="0"></rect><rect fill="#E8C000" height="100%" width="32" x="1056" y="0"></rect><rect fill="#101010" height="100%" width="48" x="1088" y="0"></rect><rect fill="#FCFCFC" height="100%" width="24" x="1136" y="0"></rect><rect fill="#101010" height="100%" width="24" x="1160" y="0"></rect></g></svg>
